# Blender 4.5.1 LTS
# www.blender.org
o Cube
v 0.550000 0.550000 -1.000000
v 0.550000 1.000000 -0.550000
v 1.000000 0.550000 -0.550000
v 0.550000 0.689084 -0.977967
v 0.550000 0.814459 -0.914090
v 0.689084 0.550000 -0.977967
v 0.692771 0.693575 -0.951874
v 0.688117 0.808365 -0.891571
v 0.814459 0.550000 -0.914090
v 0.808595 0.688474 -0.891253
v 0.788103 0.788103 -0.848519
v 0.689084 0.977967 -0.550000
v 0.814459 0.914090 -0.550000
v 0.550000 0.977967 -0.689084
v 0.693575 0.951874 -0.692771
v 0.808365 0.891571 -0.688117
v 0.550000 0.914090 -0.814459
v 0.688474 0.891253 -0.808595
v 0.788103 0.848519 -0.788103
v 0.977967 0.550000 -0.689084
v 0.914090 0.550000 -0.814459
v 0.977967 0.689084 -0.550000
v 0.951874 0.692771 -0.693575
v 0.891571 0.688117 -0.808365
v 0.914090 0.814459 -0.550000
v 0.891253 0.808595 -0.688474
v 0.848519 0.788103 -0.788103
v 0.550000 -1.000000 -0.550000
v 0.550000 -0.550000 -1.000000
v 1.000000 -0.550000 -0.550000
v 0.550000 -0.977967 -0.689084
v 0.550000 -0.914090 -0.814459
v 0.689084 -0.977967 -0.550000
v 0.692771 -0.951874 -0.693575
v 0.688117 -0.891571 -0.808365
v 0.814459 -0.914090 -0.550000
v 0.808595 -0.891253 -0.688474
v 0.788103 -0.848519 -0.788103
v 0.689084 -0.550000 -0.977967
v 0.814459 -0.550000 -0.914090
v 0.550000 -0.689084 -0.977967
v 0.693575 -0.692771 -0.951874
v 0.808365 -0.688117 -0.891571
v 0.550000 -0.814459 -0.914090
v 0.688474 -0.808595 -0.891253
v 0.788103 -0.788103 -0.848519
v 0.977967 -0.689084 -0.550000
v 0.914090 -0.814459 -0.550000
v 0.977967 -0.550000 -0.689084
v 0.951874 -0.693575 -0.692771
v 0.891571 -0.808365 -0.688117
v 0.914090 -0.550000 -0.814459
v 0.891253 -0.688474 -0.808595
v 0.848519 -0.788103 -0.788103
v 1.000000 0.550000 0.550000
v 0.550000 1.000000 0.550000
v 0.550000 0.550000 1.000000
v 0.977967 0.689084 0.550000
v 0.914090 0.814459 0.550000
v 0.977967 0.550000 0.689084
v 0.951874 0.693575 0.692771
v 0.891571 0.808365 0.688117
v 0.914090 0.550000 0.814459
v 0.891253 0.688474 0.808595
v 0.848519 0.788103 0.788103
v 0.550000 0.977967 0.689084
v 0.550000 0.914090 0.814459
v 0.689084 0.977967 0.550000
v 0.692771 0.951874 0.693575
v 0.688117 0.891571 0.808365
v 0.814459 0.914090 0.550000
v 0.808595 0.891253 0.688474
v 0.788103 0.848519 0.788103
v 0.689084 0.550000 0.977967
v 0.814459 0.550000 0.914090
v 0.550000 0.689084 0.977967
v 0.693575 0.692771 0.951874
v 0.808365 0.688117 0.891571
v 0.550000 0.814459 0.914090
v 0.688474 0.808595 0.891253
v 0.788103 0.788103 0.848519
v 1.000000 -0.550000 0.550000
v 0.550000 -0.550000 1.000000
v 0.550000 -1.000000 0.550000
v 0.977967 -0.550000 0.689084
v 0.914090 -0.550000 0.814459
v 0.977967 -0.689084 0.550000
v 0.951874 -0.692771 0.693575
v 0.891571 -0.688117 0.808365
v 0.914090 -0.814459 0.550000
v 0.891253 -0.808595 0.688474
v 0.848519 -0.788103 0.788103
v 0.550000 -0.689084 0.977967
v 0.550000 -0.814459 0.914090
v 0.689084 -0.550000 0.977967
v 0.692771 -0.693575 0.951874
v 0.688117 -0.808365 0.891571
v 0.814459 -0.550000 0.914090
v 0.808595 -0.688474 0.891253
v 0.788103 -0.788103 0.848519
v 0.689084 -0.977967 0.550000
v 0.814459 -0.914090 0.550000
v 0.550000 -0.977967 0.689084
v 0.693575 -0.951874 0.692771
v 0.808365 -0.891571 0.688117
v 0.550000 -0.914090 0.814459
v 0.688474 -0.891253 0.808595
v 0.788103 -0.848519 0.788103
v -0.550000 0.550000 -1.000000
v -1.000000 0.550000 -0.550000
v -0.550000 1.000000 -0.550000
v -0.689084 0.550000 -0.977967
v -0.814459 0.550000 -0.914090
v -0.550000 0.689084 -0.977967
v -0.693575 0.692771 -0.951874
v -0.808365 0.688117 -0.891571
v -0.550000 0.814459 -0.914090
v -0.688474 0.808595 -0.891253
v -0.788103 0.788103 -0.848519
v -0.977967 0.689084 -0.550000
v -0.914090 0.814459 -0.550000
v -0.977967 0.550000 -0.689084
v -0.951874 0.693575 -0.692771
v -0.891571 0.808365 -0.688117
v -0.914090 0.550000 -0.814459
v -0.891253 0.688474 -0.808595
v -0.848519 0.788103 -0.788103
v -0.550000 0.977967 -0.689084
v -0.550000 0.914090 -0.814459
v -0.689084 0.977967 -0.550000
v -0.692771 0.951874 -0.693575
v -0.688117 0.891571 -0.808365
v -0.814459 0.914090 -0.550000
v -0.808595 0.891253 -0.688474
v -0.788103 0.848519 -0.788103
v -1.000000 -0.550000 -0.550000
v -0.550000 -0.550000 -1.000000
v -0.550000 -1.000000 -0.550000
v -0.977967 -0.550000 -0.689084
v -0.914090 -0.550000 -0.814459
v -0.977967 -0.689084 -0.550000
v -0.951874 -0.692771 -0.693575
v -0.891571 -0.688117 -0.808365
v -0.914090 -0.814459 -0.550000
v -0.891253 -0.808595 -0.688474
v -0.848519 -0.788103 -0.788103
v -0.550000 -0.689084 -0.977967
v -0.550000 -0.814459 -0.914090
v -0.689084 -0.550000 -0.977967
v -0.692771 -0.693575 -0.951874
v -0.688117 -0.808365 -0.891571
v -0.814459 -0.550000 -0.914090
v -0.808595 -0.688474 -0.891253
v -0.788103 -0.788103 -0.848519
v -0.689084 -0.977967 -0.550000
v -0.814459 -0.914090 -0.550000
v -0.550000 -0.977967 -0.689084
v -0.693575 -0.951874 -0.692771
v -0.808365 -0.891571 -0.688117
v -0.550000 -0.914090 -0.814459
v -0.688474 -0.891253 -0.808595
v -0.788103 -0.848519 -0.788103
v -1.000000 0.550000 0.550000
v -0.550000 0.550000 1.000000
v -0.550000 1.000000 0.550000
v -0.977967 0.550000 0.689084
v -0.914090 0.550000 0.814459
v -0.977967 0.689084 0.550000
v -0.951874 0.692771 0.693575
v -0.891571 0.688117 0.808365
v -0.914090 0.814459 0.550000
v -0.891253 0.808595 0.688474
v -0.848519 0.788103 0.788103
v -0.550000 0.689084 0.977967
v -0.550000 0.814459 0.914090
v -0.689084 0.550000 0.977967
v -0.692771 0.693575 0.951874
v -0.688117 0.808365 0.891571
v -0.814459 0.550000 0.914090
v -0.808595 0.688474 0.891253
v -0.788103 0.788103 0.848519
v -0.689084 0.977967 0.550000
v -0.814459 0.914090 0.550000
v -0.550000 0.977967 0.689084
v -0.693575 0.951874 0.692771
v -0.808365 0.891571 0.688117
v -0.550000 0.914090 0.814459
v -0.688474 0.891253 0.808595
v -0.788103 0.848519 0.788103
v -0.550000 -1.000000 0.550000
v -0.550000 -0.550000 1.000000
v -1.000000 -0.550000 0.550000
v -0.550000 -0.977967 0.689084
v -0.550000 -0.914090 0.814459
v -0.689084 -0.977967 0.550000
v -0.692771 -0.951874 0.693575
v -0.688117 -0.891571 0.808365
v -0.814459 -0.914090 0.550000
v -0.808595 -0.891253 0.688474
v -0.788103 -0.848519 0.788103
v -0.689084 -0.550000 0.977967
v -0.814459 -0.550000 0.914090
v -0.550000 -0.689084 0.977967
v -0.693575 -0.692771 0.951874
v -0.808365 -0.688117 0.891571
v -0.550000 -0.814459 0.914090
v -0.688474 -0.808595 0.891253
v -0.788103 -0.788103 0.848519
v -0.977967 -0.689084 0.550000
v -0.914090 -0.814459 0.550000
v -0.977967 -0.550000 0.689084
v -0.951874 -0.693575 0.692771
v -0.891571 -0.808365 0.688117
v -0.914090 -0.550000 0.814459
v -0.891253 -0.688474 0.808595
v -0.848519 -0.788103 0.788103
vn 0.0802 0.0802 -0.9935
vn 0.0802 0.9935 -0.0802
vn 0.9935 0.0802 -0.0802
vn 0.0802 0.3083 -0.9479
vn 0.0754 0.5856 -0.8071
vn 0.3084 0.0805 -0.9478
vn 0.3068 0.3077 -0.9006
vn 0.2854 0.5696 -0.7707
vn 0.5853 0.0758 -0.8072
vn 0.5698 0.2858 -0.7705
vn 0.5156 0.5155 -0.6844
vn 0.3083 0.9479 -0.0802
vn 0.5856 0.8071 -0.0754
vn 0.0805 0.9478 -0.3084
vn 0.3077 0.9006 -0.3068
vn 0.5696 0.7707 -0.2854
vn 0.0758 0.8072 -0.5853
vn 0.2858 0.7705 -0.5698
vn 0.5155 0.6844 -0.5156
vn 0.9479 0.0802 -0.3083
vn 0.8071 0.0754 -0.5856
vn 0.9478 0.3084 -0.0805
vn 0.9006 0.3068 -0.3077
vn 0.7707 0.2854 -0.5696
vn 0.8072 0.5853 -0.0758
vn 0.7705 0.5698 -0.2858
vn 0.6844 0.5156 -0.5155
vn 0.0802 -0.9935 -0.0802
vn 0.0802 -0.0802 -0.9935
vn 0.9935 -0.0802 -0.0802
vn 0.0802 -0.9479 -0.3083
vn 0.0754 -0.8071 -0.5856
vn 0.3084 -0.9478 -0.0805
vn 0.3068 -0.9006 -0.3077
vn 0.2854 -0.7707 -0.5696
vn 0.5853 -0.8072 -0.0758
vn 0.5698 -0.7705 -0.2858
vn 0.5156 -0.6844 -0.5155
vn 0.3083 -0.0802 -0.9479
vn 0.5856 -0.0754 -0.8071
vn 0.0805 -0.3084 -0.9478
vn 0.3077 -0.3068 -0.9006
vn 0.5696 -0.2854 -0.7707
vn 0.0758 -0.5853 -0.8072
vn 0.2858 -0.5698 -0.7705
vn 0.5155 -0.5156 -0.6844
vn 0.9479 -0.3083 -0.0802
vn 0.8071 -0.5856 -0.0754
vn 0.9478 -0.0805 -0.3084
vn 0.9006 -0.3077 -0.3068
vn 0.7707 -0.5696 -0.2854
vn 0.8072 -0.0758 -0.5853
vn 0.7705 -0.2858 -0.5698
vn 0.6844 -0.5155 -0.5156
vn 0.9935 0.0802 0.0802
vn 0.0802 0.9935 0.0802
vn 0.0802 0.0802 0.9935
vn 0.9479 0.3083 0.0802
vn 0.8071 0.5856 0.0754
vn 0.9478 0.0805 0.3084
vn 0.9006 0.3077 0.3068
vn 0.7707 0.5696 0.2854
vn 0.8072 0.0758 0.5853
vn 0.7705 0.2858 0.5698
vn 0.6844 0.5155 0.5156
vn 0.0802 0.9479 0.3083
vn 0.0754 0.8071 0.5856
vn 0.3084 0.9478 0.0805
vn 0.3068 0.9006 0.3077
vn 0.2854 0.7707 0.5696
vn 0.5853 0.8072 0.0758
vn 0.5698 0.7705 0.2858
vn 0.5156 0.6844 0.5155
vn 0.3083 0.0802 0.9479
vn 0.5856 0.0754 0.8071
vn 0.0805 0.3084 0.9478
vn 0.3077 0.3068 0.9006
vn 0.5696 0.2854 0.7707
vn 0.0758 0.5853 0.8072
vn 0.2858 0.5698 0.7705
vn 0.5155 0.5156 0.6844
vn 0.9935 -0.0802 0.0802
vn 0.0802 -0.0802 0.9935
vn 0.0802 -0.9935 0.0802
vn 0.9479 -0.0802 0.3083
vn 0.8071 -0.0754 0.5856
vn 0.9478 -0.3084 0.0805
vn 0.9006 -0.3068 0.3077
vn 0.7707 -0.2854 0.5696
vn 0.8072 -0.5853 0.0758
vn 0.7705 -0.5698 0.2858
vn 0.6844 -0.5156 0.5155
vn 0.0802 -0.3083 0.9479
vn 0.0754 -0.5856 0.8071
vn 0.3084 -0.0805 0.9478
vn 0.3068 -0.3077 0.9006
vn 0.2854 -0.5696 0.7707
vn 0.5853 -0.0758 0.8072
vn 0.5698 -0.2858 0.7705
vn 0.5156 -0.5155 0.6844
vn 0.3083 -0.9479 0.0802
vn 0.5856 -0.8071 0.0754
vn 0.0805 -0.9478 0.3084
vn 0.3077 -0.9006 0.3068
vn 0.5696 -0.7707 0.2854
vn 0.0758 -0.8072 0.5853
vn 0.2858 -0.7705 0.5698
vn 0.5155 -0.6844 0.5156
vn -0.0802 0.0802 -0.9935
vn -0.9935 0.0802 -0.0802
vn -0.0802 0.9935 -0.0802
vn -0.3083 0.0802 -0.9479
vn -0.5856 0.0754 -0.8071
vn -0.0805 0.3084 -0.9478
vn -0.3077 0.3068 -0.9006
vn -0.5696 0.2854 -0.7707
vn -0.0758 0.5853 -0.8072
vn -0.2858 0.5698 -0.7705
vn -0.5155 0.5156 -0.6844
vn -0.9479 0.3083 -0.0802
vn -0.8071 0.5856 -0.0754
vn -0.9478 0.0805 -0.3084
vn -0.9006 0.3077 -0.3068
vn -0.7707 0.5696 -0.2854
vn -0.8072 0.0758 -0.5853
vn -0.7705 0.2858 -0.5698
vn -0.6844 0.5155 -0.5156
vn -0.0802 0.9479 -0.3083
vn -0.0754 0.8071 -0.5856
vn -0.3084 0.9478 -0.0805
vn -0.3068 0.9006 -0.3077
vn -0.2854 0.7707 -0.5696
vn -0.5853 0.8072 -0.0758
vn -0.5698 0.7705 -0.2858
vn -0.5156 0.6844 -0.5155
vn -0.9935 -0.0802 -0.0802
vn -0.0802 -0.0802 -0.9935
vn -0.0802 -0.9935 -0.0802
vn -0.9479 -0.0802 -0.3083
vn -0.8071 -0.0754 -0.5856
vn -0.9478 -0.3084 -0.0805
vn -0.9006 -0.3068 -0.3077
vn -0.7707 -0.2854 -0.5696
vn -0.8072 -0.5853 -0.0758
vn -0.7705 -0.5698 -0.2858
vn -0.6844 -0.5156 -0.5155
vn -0.0802 -0.3083 -0.9479
vn -0.0754 -0.5856 -0.8071
vn -0.3084 -0.0805 -0.9478
vn -0.3068 -0.3077 -0.9006
vn -0.2854 -0.5696 -0.7707
vn -0.5853 -0.0758 -0.8072
vn -0.5698 -0.2858 -0.7705
vn -0.5156 -0.5155 -0.6844
vn -0.3083 -0.9479 -0.0802
vn -0.5856 -0.8071 -0.0754
vn -0.0805 -0.9478 -0.3084
vn -0.3077 -0.9006 -0.3068
vn -0.5696 -0.7707 -0.2854
vn -0.0758 -0.8072 -0.5853
vn -0.2858 -0.7705 -0.5698
vn -0.5155 -0.6844 -0.5156
vn -0.9935 0.0802 0.0802
vn -0.0802 0.0802 0.9935
vn -0.0802 0.9935 0.0802
vn -0.9479 0.0802 0.3083
vn -0.8071 0.0754 0.5856
vn -0.9478 0.3084 0.0805
vn -0.9006 0.3068 0.3077
vn -0.7707 0.2854 0.5696
vn -0.8072 0.5853 0.0758
vn -0.7705 0.5698 0.2858
vn -0.6844 0.5156 0.5155
vn -0.0802 0.3083 0.9479
vn -0.0754 0.5856 0.8071
vn -0.3084 0.0805 0.9478
vn -0.3068 0.3077 0.9006
vn -0.2854 0.5696 0.7707
vn -0.5853 0.0758 0.8072
vn -0.5698 0.2858 0.7705
vn -0.5156 0.5155 0.6844
vn -0.3083 0.9479 0.0802
vn -0.5856 0.8071 0.0754
vn -0.0805 0.9478 0.3084
vn -0.3077 0.9006 0.3068
vn -0.5696 0.7707 0.2854
vn -0.0758 0.8072 0.5853
vn -0.2858 0.7705 0.5698
vn -0.5155 0.6844 0.5156
vn -0.0802 -0.9935 0.0802
vn -0.0802 -0.0802 0.9935
vn -0.9935 -0.0802 0.0802
vn -0.0802 -0.9479 0.3083
vn -0.0754 -0.8071 0.5856
vn -0.3084 -0.9478 0.0805
vn -0.3068 -0.9006 0.3077
vn -0.2854 -0.7707 0.5696
vn -0.5853 -0.8072 0.0758
vn -0.5698 -0.7705 0.2858
vn -0.5156 -0.6844 0.5155
vn -0.3083 -0.0802 0.9479
vn -0.5856 -0.0754 0.8071
vn -0.0805 -0.3084 0.9478
vn -0.3077 -0.3068 0.9006
vn -0.5696 -0.2854 0.7707
vn -0.0758 -0.5853 0.8072
vn -0.2858 -0.5698 0.7705
vn -0.5155 -0.5156 0.6844
vn -0.9479 -0.3083 0.0802
vn -0.8071 -0.5856 0.0754
vn -0.9478 -0.0805 0.3084
vn -0.9006 -0.3077 0.3068
vn -0.7707 -0.5696 0.2854
vn -0.8072 -0.0758 0.5853
vn -0.7705 -0.2858 0.5698
vn -0.6844 -0.5155 0.5156
vt 0.568750 0.443750
vt 0.586136 0.443750
vt 0.586697 0.461596
vt 0.568750 0.461135
vt 0.601807 0.443750
vt 0.601046 0.461015
vt 0.653218 0.471968
vt 0.645915 0.481975
vt 0.586059 0.476074
vt 0.568750 0.476807
vt 0.598513 0.473513
vt 0.641989 0.490502
vt 0.681250 0.556250
vt 0.663865 0.556250
vt 0.663303 0.538404
vt 0.681250 0.538865
vt 0.648193 0.556250
vt 0.648954 0.538985
vt 0.601807 0.556250
vt 0.601074 0.538941
vt 0.598513 0.522873
vt 0.568750 0.556250
vt 0.568750 0.538865
vt 0.586596 0.538303
vt 0.586136 0.556250
vt 0.568750 0.523193
vt 0.586015 0.523954
vt 0.318750 0.556250
vt 0.318750 0.538865
vt 0.336596 0.538303
vt 0.336135 0.556250
vt 0.318750 0.523193
vt 0.336015 0.523954
vt 0.346968 0.471782
vt 0.356975 0.479085
vt 0.351074 0.538941
vt 0.351807 0.556250
vt 0.348513 0.526487
vt 0.365502 0.483011
vt 0.431250 0.443750
vt 0.431250 0.461135
vt 0.413404 0.461697
vt 0.413865 0.443750
vt 0.431250 0.476807
vt 0.413985 0.476046
vt 0.431250 0.523193
vt 0.413941 0.523926
vt 0.397873 0.526487
vt 0.431250 0.556250
vt 0.413865 0.556250
vt 0.413303 0.538404
vt 0.431250 0.538865
vt 0.398193 0.556250
vt 0.398954 0.538985
vt 0.568750 0.693750
vt 0.586136 0.693750
vt 0.586697 0.711596
vt 0.568750 0.711135
vt 0.601807 0.693750
vt 0.601046 0.711015
vt 0.648193 0.693750
vt 0.648926 0.711059
vt 0.586059 0.726074
vt 0.568750 0.726807
vt 0.598513 0.727127
vt 0.641989 0.759498
vt 0.681250 0.693750
vt 0.681250 0.711136
vt 0.663404 0.711697
vt 0.663865 0.693750
vt 0.653205 0.778045
vt 0.645893 0.768092
vt 0.601807 0.806250
vt 0.601074 0.788941
vt 0.598513 0.776487
vt 0.568750 0.806250
vt 0.568750 0.788865
vt 0.586596 0.788303
vt 0.586136 0.806250
vt 0.568750 0.773193
vt 0.586015 0.773954
vt 0.431250 0.693750
vt 0.431250 0.711136
vt 0.413404 0.711697
vt 0.413865 0.693750
vt 0.431250 0.726807
vt 0.413985 0.726046
vt 0.431250 0.773193
vt 0.413941 0.773926
vt 0.398926 0.711059
vt 0.398193 0.693750
vt 0.397873 0.723513
vt 0.365502 0.766989
vt 0.431250 0.806250
vt 0.413865 0.806250
vt 0.413303 0.788404
vt 0.431250 0.788865
vt 0.346955 0.778205
vt 0.356908 0.770893
vt 0.318750 0.726807
vt 0.336059 0.726074
vt 0.348513 0.723513
vt 0.318750 0.693750
vt 0.336135 0.693750
vt 0.336697 0.711596
vt 0.318750 0.711135
vt 0.351807 0.693750
vt 0.351046 0.711015
vt 0.568750 0.306250
vt 0.568750 0.288865
vt 0.586596 0.288303
vt 0.586136 0.306250
vt 0.568750 0.273193
vt 0.586015 0.273954
vt 0.568750 0.226807
vt 0.586059 0.226074
vt 0.601074 0.288941
vt 0.601807 0.306250
vt 0.598513 0.272873
vt 0.598513 0.223513
vt 0.568750 0.193750
vt 0.586136 0.193750
vt 0.586697 0.211596
vt 0.568750 0.211135
vt 0.601807 0.193750
vt 0.601046 0.211015
vt 0.625000 0.193750
vt 0.625000 0.211059
vt 0.625000 0.235104
vt 0.818750 0.556250
vt 0.818750 0.538865
vt 0.836596 0.538303
vt 0.836136 0.556250
vt 0.818750 0.500000
vt 0.836015 0.500000
vt 0.625000 0.306250
vt 0.625000 0.288985
vt 0.875000 0.538941
vt 0.875000 0.556250
vt 0.875000 0.526487
vt 0.431250 0.193750
vt 0.431250 0.211135
vt 0.413404 0.211697
vt 0.413865 0.193750
vt 0.431250 0.226807
vt 0.413985 0.226046
vt 0.431250 0.273193
vt 0.413941 0.273926
vt 0.375000 0.211059
vt 0.375000 0.193750
vt 0.375000 0.223513
vt 0.375000 0.276487
vt 0.431250 0.306250
vt 0.413865 0.306250
vt 0.413303 0.288404
vt 0.431250 0.288865
vt 0.375000 0.306250
vt 0.375000 0.288985
vt 0.181250 0.500000
vt 0.181250 0.523193
vt 0.163941 0.523926
vt 0.163985 0.500000
vt 0.151487 0.526487
vt 0.151487 0.500000
vt 0.181250 0.556250
vt 0.163865 0.556250
vt 0.163303 0.538404
vt 0.181250 0.538865
vt 0.148193 0.556250
vt 0.148954 0.538985
vt 0.125000 0.556250
vt 0.125000 0.538941
vt 0.125000 0.526487
vt 0.568750 0.056250
vt 0.568750 0.038865
vt 0.586596 0.038303
vt 0.586136 0.056250
vt 0.568750 0.023193
vt 0.586015 0.023954
vt 0.568750 0.000000
vt 0.586059 0.000000
vt 0.601074 0.038941
vt 0.601807 0.056250
vt 0.598513 0.026487
vt 0.598513 0.000000
vt 0.568750 0.943750
vt 0.586136 0.943750
vt 0.586697 0.961596
vt 0.568750 0.961135
vt 0.601807 0.943750
vt 0.601046 0.961015
vt 0.625000 0.943750
vt 0.625000 0.961059
vt 0.586059 1.000000
vt 0.568750 1.000000
vt 0.598513 1.000000
vt 0.625000 1.000000
vt 0.818750 0.693750
vt 0.836136 0.693750
vt 0.836697 0.711596
vt 0.818750 0.711135
vt 0.875000 0.693750
vt 0.875000 0.711015
vt 0.625000 0.056250
vt 0.625000 0.038985
vt 0.836059 0.750000
vt 0.818750 0.750000
vt 0.875000 0.723513
vt 0.625000 0.026487
vt 0.181250 0.693750
vt 0.181250 0.711136
vt 0.163404 0.711697
vt 0.163865 0.693750
vt 0.181250 0.726807
vt 0.163985 0.726046
vt 0.181250 0.750000
vt 0.163941 0.750000
vt 0.148926 0.711059
vt 0.148193 0.693750
vt 0.151487 0.723513
vt 0.151487 0.750000
vt 0.431250 0.943750
vt 0.431250 0.961136
vt 0.413404 0.961697
vt 0.413865 0.943750
vt 0.431250 1.000000
vt 0.413985 1.000000
vt 0.431250 0.000000
vt 0.431250 0.023193
vt 0.413941 0.023926
vt 0.413985 0.000000
vt 0.375000 0.961059
vt 0.375000 0.943750
vt 0.375000 0.973513
vt 0.375000 0.026487
vt 0.375000 0.000000
vt 0.431250 0.056250
vt 0.413864 0.056250
vt 0.413303 0.038404
vt 0.431250 0.038865
vt 0.375000 0.056250
vt 0.375000 0.038985
vt 0.125000 0.693750
vt 0.125000 0.711015
vt 0.125000 0.723513
s 1
f 1/1/1 4/2/4 7/3/7 6/4/6
f 4/2/4 5/5/5 8/6/8 7/3/7
f 5/5/5 17/7/17 18/8/18 8/6/8
f 6/4/6 7/3/7 10/9/10 9/10/9
f 7/3/7 8/6/8 11/11/11 10/9/10
f 8/6/8 18/8/18 19/12/19 11/11/11
f 2/13/2 12/14/12 15/15/15 14/16/14
f 12/14/12 13/17/13 16/18/16 15/15/15
f 13/17/13 25/19/25 26/20/26 16/18/16
f 14/16/14 15/15/15 18/8/18 17/7/17
f 15/15/15 16/18/16 19/12/19 18/8/18
f 16/18/16 26/20/26 27/21/27 19/12/19
f 3/22/3 20/23/20 23/24/23 22/25/22
f 20/23/20 21/26/21 24/27/24 23/24/23
f 21/26/21 9/10/9 10/9/10 24/27/24
f 22/25/22 23/24/23 26/20/26 25/19/25
f 23/24/23 24/27/24 27/21/27 26/20/26
f 24/27/24 10/9/10 11/11/11 27/21/27
f 11/11/11 19/12/19 27/21/27
f 28/28/28 31/29/31 34/30/34 33/31/33
f 31/29/31 32/32/32 35/33/35 34/30/34
f 32/32/32 44/34/44 45/35/45 35/33/35
f 33/31/33 34/30/34 37/36/37 36/37/36
f 34/30/34 35/33/35 38/38/38 37/36/37
f 35/33/35 45/35/45 46/39/46 38/38/38
f 29/40/29 39/41/39 42/42/42 41/43/41
f 39/41/39 40/44/40 43/45/43 42/42/42
f 40/44/40 52/46/52 53/47/53 43/45/43
f 41/43/41 42/42/42 45/35/45 44/34/44
f 42/42/42 43/45/43 46/39/46 45/35/45
f 43/45/43 53/47/53 54/48/54 46/39/46
f 30/49/30 47/50/47 50/51/50 49/52/49
f 47/50/47 48/53/48 51/54/51 50/51/50
f 48/53/48 36/37/36 37/36/37 51/54/51
f 49/52/49 50/51/50 53/47/53 52/46/52
f 50/51/50 51/54/51 54/48/54 53/47/53
f 51/54/51 37/36/37 38/38/38 54/48/54
f 38/38/38 46/39/46 54/48/54
f 55/55/55 58/56/58 61/57/61 60/58/60
f 58/56/58 59/59/59 62/60/62 61/57/61
f 59/59/59 71/61/71 72/62/72 62/60/62
f 60/58/60 61/57/61 64/63/64 63/64/63
f 61/57/61 62/60/62 65/65/65 64/63/64
f 62/60/62 72/62/72 73/66/73 65/65/65
f 56/67/56 66/68/66 69/69/69 68/70/68
f 66/68/66 67/71/67 70/72/70 69/69/69
f 67/71/67 79/73/79 80/74/80 70/72/70
f 68/70/68 69/69/69 72/62/72 71/61/71
f 69/69/69 70/72/70 73/66/73 72/62/72
f 70/72/70 80/74/80 81/75/81 73/66/73
f 57/76/57 74/77/74 77/78/77 76/79/76
f 74/77/74 75/80/75 78/81/78 77/78/77
f 75/80/75 63/64/63 64/63/64 78/81/78
f 76/79/76 77/78/77 80/74/80 79/73/79
f 77/78/77 78/81/78 81/75/81 80/74/80
f 78/81/78 64/63/64 65/65/65 81/75/81
f 65/65/65 73/66/73 81/75/81
f 82/82/82 85/83/85 88/84/88 87/85/87
f 85/83/85 86/86/86 89/87/89 88/84/88
f 86/86/86 98/88/98 99/89/99 89/87/89
f 87/85/87 88/84/88 91/90/91 90/91/90
f 88/84/88 89/87/89 92/92/92 91/90/91
f 89/87/89 99/89/99 100/93/100 92/92/92
f 83/94/83 93/95/93 96/96/96 95/97/95
f 93/95/93 94/98/94 97/99/97 96/96/96
f 94/98/94 106/100/106 107/101/107 97/99/97
f 95/97/95 96/96/96 99/89/99 98/88/98
f 96/96/96 97/99/97 100/93/100 99/89/99
f 97/99/97 107/101/107 108/102/108 100/93/100
f 84/103/84 101/104/101 104/105/104 103/106/103
f 101/104/101 102/107/102 105/108/105 104/105/104
f 102/107/102 90/91/90 91/90/91 105/108/105
f 103/106/103 104/105/104 107/101/107 106/100/106
f 104/105/104 105/108/105 108/102/108 107/101/107
f 105/108/105 91/90/91 92/92/92 108/102/108
f 92/92/92 100/93/100 108/102/108
f 109/109/109 112/110/112 115/111/115 114/112/114
f 112/110/112 113/113/113 116/114/116 115/111/115
f 113/113/113 125/115/125 126/116/126 116/114/116
f 114/112/114 115/111/115 118/117/118 117/118/117
f 115/111/115 116/114/116 119/119/119 118/117/118
f 116/114/116 126/116/126 127/120/127 119/119/119
f 110/121/110 120/122/120 123/123/123 122/124/122
f 120/122/120 121/125/121 124/126/124 123/123/123
f 121/125/121 133/127/133 134/128/134 124/126/124
f 122/124/122 123/123/123 126/116/126 125/115/125
f 123/123/123 124/126/124 127/120/127 126/116/126
f 124/126/124 134/128/134 135/129/135 127/120/127
f 111/130/111 128/131/128 131/132/131 130/133/130
f 128/131/128 129/134/129 132/135/132 131/132/131
f 129/136/129 117/118/117 118/117/118 132/137/132
f 130/133/130 131/132/131 134/138/134 133/139/133
f 131/132/131 132/135/132 135/140/135 134/138/134
f 132/137/132 118/117/118 119/119/119 135/129/135
f 119/119/119 127/120/127 135/129/135
f 136/141/136 139/142/139 142/143/142 141/144/141
f 139/142/139 140/145/140 143/146/143 142/143/142
f 140/145/140 152/147/152 153/148/153 143/146/143
f 141/144/141 142/143/142 145/149/145 144/150/144
f 142/143/142 143/146/143 146/151/146 145/149/145
f 143/146/143 153/148/153 154/152/154 146/151/146
f 137/153/137 147/154/147 150/155/150 149/156/149
f 147/154/147 148/157/148 151/158/151 150/155/150
f 148/159/148 160/160/160 161/161/161 151/162/151
f 149/156/149 150/155/150 153/148/153 152/147/152
f 150/155/150 151/158/151 154/152/154 153/148/153
f 151/162/151 161/161/161 162/163/162 154/164/154
f 138/165/138 155/166/155 158/167/158 157/168/157
f 155/166/155 156/169/156 159/170/159 158/167/158
f 156/169/156 144/171/144 145/172/145 159/170/159
f 157/168/157 158/167/158 161/161/161 160/160/160
f 158/167/158 159/170/159 162/163/162 161/161/161
f 159/170/159 145/172/145 146/173/146 162/163/162
f 146/173/146 154/164/154 162/163/162
f 163/174/163 166/175/166 169/176/169 168/177/168
f 166/175/166 167/178/167 170/179/170 169/176/169
f 167/178/167 179/180/179 180/181/180 170/179/170
f 168/177/168 169/176/169 172/182/172 171/183/171
f 169/176/169 170/179/170 173/184/173 172/182/172
f 170/179/170 180/181/180 181/185/181 173/184/173
f 164/186/164 174/187/174 177/188/177 176/189/176
f 174/187/174 175/190/175 178/191/178 177/188/177
f 175/190/175 187/192/187 188/193/188 178/191/178
f 176/189/176 177/188/177 180/194/180 179/195/179
f 177/188/177 178/191/178 181/196/181 180/194/180
f 178/191/178 188/193/188 189/197/189 181/196/181
f 165/198/165 182/199/182 185/200/185 184/201/184
f 182/199/182 183/202/183 186/203/186 185/200/185
f 183/204/183 171/183/171 172/182/172 186/205/186
f 184/201/184 185/200/185 188/206/188 187/207/187
f 185/200/185 186/203/186 189/208/189 188/206/188
f 186/205/186 172/182/172 173/184/173 189/209/189
f 173/184/173 181/185/181 189/209/189
f 190/210/190 193/211/193 196/212/196 195/213/195
f 193/211/193 194/214/194 197/215/197 196/212/196
f 194/214/194 206/216/206 207/217/207 197/215/197
f 195/213/195 196/212/196 199/218/199 198/219/198
f 196/212/196 197/215/197 200/220/200 199/218/199
f 197/215/197 207/217/207 208/221/208 200/220/200
f 191/222/191 201/223/201 204/224/204 203/225/203
f 201/223/201 202/226/202 205/227/205 204/224/204
f 202/228/202 214/229/214 215/230/215 205/231/205
f 203/225/203 204/224/204 207/232/207 206/233/206
f 204/224/204 205/227/205 208/234/208 207/232/207
f 205/231/205 215/230/215 216/235/216 208/236/208
f 192/237/192 209/238/209 212/239/212 211/240/211
f 209/238/209 210/241/210 213/242/213 212/239/212
f 210/243/210 198/219/198 199/218/199 213/244/213
f 211/240/211 212/239/212 215/230/215 214/229/214
f 212/239/212 213/242/213 216/235/216 215/230/215
f 213/244/213 199/218/199 200/220/200 216/245/216
f 200/220/200 208/221/208 216/245/216
f 138/165/138 190/210/190 195/213/195 155/166/155
f 155/166/155 195/213/195 198/219/198 156/169/156
f 156/169/156 198/219/198 210/243/210 144/171/144
f 144/150/144 210/241/210 209/238/209 141/144/141
f 141/144/141 209/238/209 192/237/192 136/141/136
f 28/28/28 138/165/138 157/168/157 31/29/31
f 31/29/31 157/168/157 160/160/160 32/32/32
f 32/32/32 160/160/160 148/159/148 44/34/44
f 44/34/44 148/157/148 147/154/147 41/43/41
f 41/43/41 147/154/147 137/153/137 29/40/29
f 3/22/3 30/49/30 49/52/49 20/23/20
f 20/23/20 49/52/49 52/46/52 21/26/21
f 21/26/21 52/46/52 40/44/40 9/10/9
f 9/10/9 40/44/40 39/41/39 6/4/6
f 6/4/6 39/41/39 29/40/29 1/1/1
f 191/222/191 164/186/164 176/189/176 201/223/201
f 201/223/201 176/189/176 179/195/179 202/226/202
f 202/228/202 179/180/179 167/178/167 214/229/214
f 214/229/214 167/178/167 166/175/166 211/240/211
f 211/240/211 166/175/166 163/174/163 192/237/192
f 57/76/57 83/94/83 95/97/95 74/77/74
f 74/77/74 95/97/95 98/88/98 75/80/75
f 75/80/75 98/88/98 86/86/86 63/64/63
f 63/64/63 86/86/86 85/83/85 60/58/60
f 60/58/60 85/83/85 82/82/82 55/55/55
f 109/109/109 137/153/137 149/156/149 112/110/112
f 112/110/112 149/156/149 152/147/152 113/113/113
f 113/113/113 152/147/152 140/145/140 125/115/125
f 125/115/125 140/145/140 139/142/139 122/124/122
f 122/124/122 139/142/139 136/141/136 110/121/110
f 56/67/56 165/198/165 184/201/184 66/68/66
f 66/68/66 184/201/184 187/207/187 67/71/67
f 67/71/67 187/192/187 175/190/175 79/73/79
f 79/73/79 175/190/175 174/187/174 76/79/76
f 76/79/76 174/187/174 164/186/164 57/76/57
f 2/13/2 56/67/56 68/70/68 12/14/12
f 12/14/12 68/70/68 71/61/71 13/17/13
f 13/17/13 71/61/71 59/59/59 25/19/25
f 25/19/25 59/59/59 58/56/58 22/25/22
f 22/25/22 58/56/58 55/55/55 3/22/3
f 190/210/190 84/103/84 103/106/103 193/211/193
f 193/211/193 103/106/103 106/100/106 194/214/194
f 194/214/194 106/100/106 94/98/94 206/216/206
f 206/233/206 94/98/94 93/95/93 203/225/203
f 203/225/203 93/95/93 83/94/83 191/222/191
f 165/198/165 111/130/111 130/133/130 182/199/182
f 182/199/182 130/133/130 133/139/133 183/202/183
f 183/204/183 133/127/133 121/125/121 171/183/171
f 171/183/171 121/125/121 120/122/120 168/177/168
f 168/177/168 120/122/120 110/121/110 163/174/163
f 111/130/111 2/13/2 14/16/14 128/131/128
f 128/131/128 14/16/14 17/7/17 129/134/129
f 129/136/129 17/7/17 5/5/5 117/118/117
f 117/118/117 5/5/5 4/2/4 114/112/114
f 114/112/114 4/2/4 1/1/1 109/109/109
f 84/103/84 28/28/28 33/31/33 101/104/101
f 101/104/101 33/31/33 36/37/36 102/107/102
f 102/107/102 36/37/36 48/53/48 90/91/90
f 90/91/90 48/53/48 47/50/47 87/85/87
f 87/85/87 47/50/47 30/49/30 82/82/82
f 137/153/137 109/109/109 1/1/1 29/40/29
f 30/49/30 3/22/3 55/55/55 82/82/82
f 2/13/2 111/130/111 165/198/165 56/67/56
f 138/165/138 28/28/28 84/103/84 190/210/190
f 83/94/83 57/76/57 164/186/164 191/222/191
f 192/237/192 163/174/163 110/121/110 136/141/136
